<svg xmlns="http://www.w3.org/2000/svg" viewBox="0 0 512 512" role="img" aria-label="NoDaysIdle Whispering logo">
  <defs>
    <linearGradient id="wave" x1="104" y1="256" x2="408" y2="256" gradientUnits="userSpaceOnUse">
      <stop offset="0" stop-color="#C8FF00"/>
      <stop offset="1" stop-color="#F0F0F5"/>
    </linearGradient>
  </defs>
  <rect width="512" height="512" rx="112" fill="#0A0A0F"/>
  <rect x="42" y="42" width="428" height="428" rx="92" fill="#14141F"/>
  <path
    d="M144 314V198c0-17.7 14.3-32 32-32s32 14.3 32 32v116c0 17.7-14.3 32-32 32s-32-14.3-32-32Z"
    fill="#F0F0F5"
  />
  <path
    d="M232 342V170c0-17.7 14.3-32 32-32s32 14.3 32 32v172c0 17.7-14.3 32-32 32s-32-14.3-32-32Z"
    fill="#F0F0F5"
  />
  <path
    d="M320 314V198c0-17.7 14.3-32 32-32s32 14.3 32 32v116c0 17.7-14.3 32-32 32s-32-14.3-32-32Z"
    fill="#F0F0F5"
  />
  <path
    d="M104 256c18-44 51-66 98-66 33 0 55 11 76 34 16 17 30 28 54 28 27 0 50-15 76-44"
    fill="none"
    stroke="url(#wave)"
    stroke-width="24"
    stroke-linecap="round"
  />
  <path
    d="M104 318c27 29 61 44 101 44 33 0 58-11 80-34 17-18 32-29 56-29 24 0 46 10 67 31"
    fill="none"
    stroke="#C8FF00"
    stroke-width="20"
    stroke-linecap="round"
    opacity="0.72"
  />
</svg>
